<svg xmlns="http://www.w3.org/2000/svg" viewBox="0 0 100 100" fill="none">
  <rect width="100" height="100" rx="12" fill="#02030a"/>
  <rect x="10" y="10" width="30" height="30" rx="3" stroke="#4dd8e6" stroke-width="4" fill="none"/>
  <rect x="60" y="10" width="30" height="30" rx="3" stroke="#4dd8e6" stroke-width="4" fill="none"/>
  <rect x="10" y="60" width="30" height="30" rx="3" stroke="#4dd8e6" stroke-width="4" fill="none"/>
  <rect x="17" y="17" width="16" height="16" rx="1" fill="#4dd8e6"/>
  <rect x="67" y="17" width="16" height="16" rx="1" fill="#4dd8e6"/>
  <rect x="17" y="67" width="16" height="16" rx="1" fill="#4dd8e6"/>
  <rect x="60" y="60" width="8" height="8" fill="#e84393"/>
  <rect x="72" y="60" width="8" height="8" fill="#e84393"/>
  <rect x="60" y="72" width="8" height="8" fill="#e84393"/>
  <rect x="72" y="72" width="8" height="8" fill="#e84393"/>
  <rect x="82" y="60" width="8" height="8" fill="#4dd8e6"/>
  <rect x="60" y="82" width="8" height="8" fill="#4dd8e6"/>
  <rect x="82" y="82" width="8" height="8" fill="#4dd8e6"/>
</svg>
